<mxfile host="app.diagrams.net" agent="Mozilla/5.0 (Macintosh; Intel Mac OS X 10_15_7) AppleWebKit/537.36 (KHTML, like Gecko) Chrome/137.0.0.0 Safari/537.36" version="27.1.4">
  <diagram id="zy__i6AHs1oJiRaJ4q7P" name="Page-2">
    <mxGraphModel dx="2374" dy="2277" grid="1" gridSize="10" guides="1" tooltips="1" connect="1" arrows="1" fold="1" page="1" pageScale="1" pageWidth="827" pageHeight="1169" math="0" shadow="0">
      <root>
        <mxCell id="0" />
        <mxCell id="1" parent="0" />
        <mxCell id="ywzTk-LXkrVb3hz-Z-Vu-1" value="ContextVibes CLI&#xa;(Operational Tooling, Automation,&#xa;Enhancement Target)" style="ellipse;whiteSpace=wrap;html=1;fillColor=#D4E1CF;strokeColor=#333333;strokeWidth=1.5;fontColor=#000000;fontSize=12;fontStyle=0;align=center;verticalAlign=middle;fontFamily=Helvetica,Arial,sans-serif;shadow=1;" vertex="1" parent="1">
          <mxGeometry x="20" y="180" width="250" height="130" as="geometry" />
        </mxCell>
        <mxCell id="ywzTk-LXkrVb3hz-Z-Vu-2" value="THEA Guidance System&#xa;(Principles, Schemas, Playbooks,&#xa;Core airules.md)" style="ellipse;whiteSpace=wrap;html=1;fillColor=#E0E0E0;strokeColor=#333333;strokeWidth=1.5;fontColor=#000000;fontSize=12;fontStyle=0;align=center;verticalAlign=middle;fontFamily=Helvetica,Arial,sans-serif;shadow=1;" vertex="1" parent="1">
          <mxGeometry x="15" y="-110" width="260" height="130" as="geometry" />
        </mxCell>
        <mxCell id="ywzTk-LXkrVb3hz-Z-Vu-3" value="Feedback &amp; Improvement Ideas&#xa;(Generated by Developer,&#xa;Input to Backlog)" style="ellipse;whiteSpace=wrap;html=1;fillColor=#F8CECC;strokeColor=#333333;strokeWidth=1.5;fontColor=#000000;fontSize=12;fontStyle=0;align=center;verticalAlign=middle;fontFamily=Helvetica,Arial,sans-serif;shadow=1;" vertex="1" parent="1">
          <mxGeometry x="-460" y="180" width="260" height="130" as="geometry" />
        </mxCell>
        <mxCell id="ywzTk-LXkrVb3hz-Z-Vu-4" value="Firebase Studio Templates&#xa;(Inc. embedded airules.md,&#xa;Project Starters)" style="ellipse;whiteSpace=wrap;html=1;fillColor=#D1E9FC;strokeColor=#333333;strokeWidth=1.5;fontColor=#000000;fontSize=12;fontStyle=0;align=center;verticalAlign=middle;fontFamily=Helvetica,Arial,sans-serif;shadow=1;" vertex="1" parent="1">
          <mxGeometry x="500" y="180" width="250" height="130" as="geometry" />
        </mxCell>
        <mxCell id="ywzTk-LXkrVb3hz-Z-Vu-5" value="Developer Experience&#xa;(Using &amp; Developing Templates,&#xa;Interacting with AI)" style="ellipse;whiteSpace=wrap;html=1;fillColor=#FFF9C4;strokeColor=#333333;strokeWidth=1.5;fontColor=#000000;fontSize=12;fontStyle=0;align=center;verticalAlign=middle;fontFamily=Helvetica,Arial,sans-serif;shadow=1;" vertex="1" parent="1">
          <mxGeometry x="15" y="450" width="280" height="130" as="geometry" />
        </mxCell>
        <mxCell id="ywzTk-LXkrVb3hz-Z-Vu-6" value="Guides Creation &amp; Structure&#xa;Informs Better Templates &amp; CLI Logic" style="edgeStyle=entityRelationEdgeStyle;html=1;endArrow=classic;strokeColor=#444444;strokeWidth=1.5;fontColor=#333333;fontSize=10;fontFamily=Helvetica,Arial,sans-serif;whiteSpace=wrap;align=center;verticalAlign=middle;labelBackgroundColor=none;" edge="1" parent="1" source="ywzTk-LXkrVb3hz-Z-Vu-2" target="ywzTk-LXkrVb3hz-Z-Vu-4">
          <mxGeometry relative="1" as="geometry" />
        </mxCell>
        <mxCell id="ywzTk-LXkrVb3hz-Z-Vu-7" value="Used By" style="edgeStyle=entityRelationEdgeStyle;html=1;endArrow=classic;strokeColor=#444444;strokeWidth=1.5;fontColor=#333333;fontSize=10;fontFamily=Helvetica,Arial,sans-serif;align=center;verticalAlign=middle;labelBackgroundColor=none;" edge="1" parent="1" source="ywzTk-LXkrVb3hz-Z-Vu-4" target="ywzTk-LXkrVb3hz-Z-Vu-5">
          <mxGeometry relative="1" as="geometry" />
        </mxCell>
        <mxCell id="ywzTk-LXkrVb3hz-Z-Vu-8" value="Identifies Needs/Gaps" style="edgeStyle=entityRelationEdgeStyle;html=1;endArrow=classic;strokeColor=#444444;strokeWidth=1.5;fontColor=#333333;fontSize=10;fontFamily=Helvetica,Arial,sans-serif;align=center;verticalAlign=middle;labelBackgroundColor=none;" edge="1" parent="1" source="ywzTk-LXkrVb3hz-Z-Vu-5" target="ywzTk-LXkrVb3hz-Z-Vu-3">
          <mxGeometry relative="1" as="geometry" />
        </mxCell>
        <mxCell id="ywzTk-LXkrVb3hz-Z-Vu-9" value="Proposals for Tooling&#xa;(via Nexus/Kernel)" style="edgeStyle=entityRelationEdgeStyle;html=1;endArrow=classic;strokeColor=#444444;strokeWidth=1.5;fontColor=#333333;fontSize=10;fontFamily=Helvetica,Arial,sans-serif;whiteSpace=wrap;align=center;verticalAlign=middle;labelBackgroundColor=none;" edge="1" parent="1" source="ywzTk-LXkrVb3hz-Z-Vu-3" target="ywzTk-LXkrVb3hz-Z-Vu-1">
          <mxGeometry relative="1" as="geometry" />
        </mxCell>
        <mxCell id="ywzTk-LXkrVb3hz-Z-Vu-10" value="Proposals for Framework&#xa;(via Athena)" style="edgeStyle=entityRelationEdgeStyle;html=1;endArrow=classic;strokeColor=#444444;strokeWidth=1.5;fontColor=#333333;fontSize=10;fontFamily=Helvetica,Arial,sans-serif;whiteSpace=wrap;align=center;verticalAlign=middle;labelBackgroundColor=none;" edge="1" parent="1" source="ywzTk-LXkrVb3hz-Z-Vu-3" target="ywzTk-LXkrVb3hz-Z-Vu-2">
          <mxGeometry relative="1" as="geometry" />
        </mxCell>
        <mxCell id="ywzTk-LXkrVb3hz-Z-Vu-11" value="Reveals Needs for Better Guidance /&#xa;Enhances THEA Interaction" style="edgeStyle=entityRelationEdgeStyle;html=1;endArrow=classic;strokeColor=#444444;strokeWidth=1.5;fontColor=#333333;fontSize=10;fontFamily=Helvetica,Arial,sans-serif;whiteSpace=wrap;align=center;verticalAlign=middle;labelBackgroundColor=none;" edge="1" parent="1" source="ywzTk-LXkrVb3hz-Z-Vu-1" target="ywzTk-LXkrVb3hz-Z-Vu-2">
          <mxGeometry y="45" relative="1" as="geometry">
            <mxPoint as="offset" />
          </mxGeometry>
        </mxCell>
        <mxCell id="ywzTk-LXkrVb3hz-Z-Vu-12" value="Guides More Intelligent CLI" style="edgeStyle=entityRelationEdgeStyle;html=1;endArrow=classic;strokeColor=#444444;strokeWidth=1.5;fontColor=#333333;fontSize=10;fontFamily=Helvetica,Arial,sans-serif;whiteSpace=wrap;align=center;verticalAlign=middle;labelBackgroundColor=none;" edge="1" parent="1" source="ywzTk-LXkrVb3hz-Z-Vu-2" target="ywzTk-LXkrVb3hz-Z-Vu-1">
          <mxGeometry relative="1" as="geometry" />
        </mxCell>
        <mxCell id="ywzTk-LXkrVb3hz-Z-Vu-13" value="Streamlines Template Dev&#xa;&amp; THEA Application" style="edgeStyle=entityRelationEdgeStyle;html=1;endArrow=classic;strokeColor=#444444;strokeWidth=1.5;fontColor=#333333;fontSize=10;fontFamily=Helvetica,Arial,sans-serif;whiteSpace=wrap;align=center;verticalAlign=middle;labelBackgroundColor=none;" edge="1" parent="1" source="ywzTk-LXkrVb3hz-Z-Vu-1" target="ywzTk-LXkrVb3hz-Z-Vu-4">
          <mxGeometry relative="1" as="geometry" />
        </mxCell>
      </root>
    </mxGraphModel>
  </diagram>
</mxfile>
